<mxfile host="65bd71144e" modified="2020-11-02T21:04:23.439Z" agent="5.0 (Windows NT 10.0; Win64; x64) AppleWebKit/537.36 (KHTML, like Gecko) Code/1.50.1 Chrome/83.0.4103.122 Electron/9.2.1 Safari/537.36" version="13.6.5" etag="bhk1ksXd-V599GIDF0km">
    <diagram id="LRbDEcC-GmyEEOyRBT4f" name="Page-1">
        <mxGraphModel dx="1208" dy="656" grid="1" gridSize="10" guides="1" tooltips="1" connect="1" arrows="1" fold="1" page="1" pageScale="1" pageWidth="850" pageHeight="1100" math="0" shadow="1">
            <root>
                <mxCell id="0"/>
                <mxCell id="1" parent="0"/>
                <mxCell id="69" style="edgeStyle=orthogonalEdgeStyle;jumpSize=0;orthogonalLoop=1;jettySize=auto;html=1;exitX=0.102;exitY=1;exitDx=0;exitDy=0;entryX=0;entryY=0.5;entryDx=0;entryDy=0;exitPerimeter=0;" edge="1" parent="1" source="17" target="33">
                    <mxGeometry relative="1" as="geometry">
                        <Array as="points">
                            <mxPoint x="72" y="230"/>
                        </Array>
                    </mxGeometry>
                </mxCell>
                <mxCell id="49" value="..." style="whiteSpace=wrap;html=1;fillColor=#dae8fc;strokeColor=#6c8ebf;gradientColor=#ffffff;rounded=1;" vertex="1" parent="1">
                    <mxGeometry x="215" y="425" width="160" height="20" as="geometry"/>
                </mxCell>
                <mxCell id="46" value="..." style="whiteSpace=wrap;html=1;fillColor=#dae8fc;strokeColor=#6c8ebf;gradientColor=#ffffff;rounded=1;" vertex="1" parent="1">
                    <mxGeometry x="280" y="265" width="160" height="20" as="geometry"/>
                </mxCell>
                <mxCell id="48" value="..." style="whiteSpace=wrap;html=1;fillColor=#dae8fc;strokeColor=#6c8ebf;gradientColor=#ffffff;rounded=1;" vertex="1" parent="1">
                    <mxGeometry x="240" y="385" width="160" height="20" as="geometry"/>
                </mxCell>
                <mxCell id="47" value="..." style="whiteSpace=wrap;html=1;fillColor=#dae8fc;strokeColor=#6c8ebf;gradientColor=#ffffff;rounded=1;" vertex="1" parent="1">
                    <mxGeometry x="240" y="345" width="160" height="20" as="geometry"/>
                </mxCell>
                <mxCell id="45" value="..." style="whiteSpace=wrap;html=1;fillColor=#dae8fc;strokeColor=#6c8ebf;gradientColor=#ffffff;rounded=1;" vertex="1" parent="1">
                    <mxGeometry x="240" y="305" width="160" height="20" as="geometry"/>
                </mxCell>
                <mxCell id="43" value="..." style="whiteSpace=wrap;html=1;fillColor=#dae8fc;strokeColor=#6c8ebf;gradientColor=#ffffff;rounded=1;" vertex="1" parent="1">
                    <mxGeometry x="240" y="190" width="160" height="20" as="geometry"/>
                </mxCell>
                <mxCell id="42" value="..." style="whiteSpace=wrap;html=1;fillColor=#dae8fc;strokeColor=#6c8ebf;gradientColor=#ffffff;rounded=1;" vertex="1" parent="1">
                    <mxGeometry x="240" y="150" width="160" height="20" as="geometry"/>
                </mxCell>
                <mxCell id="14" value="sections" style="whiteSpace=wrap;html=1;fillColor=#f5f5f5;strokeColor=#666666;fontColor=#333333;gradientColor=#ffffff;rounded=1;" vertex="1" parent="1">
                    <mxGeometry x="60" y="60" width="120" height="20" as="geometry"/>
                </mxCell>
                <mxCell id="51" style="edgeStyle=orthogonalEdgeStyle;orthogonalLoop=1;jettySize=auto;html=1;exitX=0.1;exitY=1.007;exitDx=0;exitDy=0;entryX=0;entryY=0.5;entryDx=0;entryDy=0;exitPerimeter=0;" edge="1" parent="1" source="15" target="14">
                    <mxGeometry relative="1" as="geometry">
                        <Array as="points">
                            <mxPoint x="40" y="40"/>
                            <mxPoint x="40" y="70"/>
                        </Array>
                    </mxGeometry>
                </mxCell>
                <mxCell id="15" value="base_directory" style="whiteSpace=wrap;html=1;fillColor=#f5f5f5;strokeColor=#666666;fontColor=#333333;gradientColor=#ffffff;rounded=1;" vertex="1" parent="1">
                    <mxGeometry x="30" y="20" width="120" height="20" as="geometry"/>
                </mxCell>
                <mxCell id="68" style="edgeStyle=orthogonalEdgeStyle;orthogonalLoop=1;jettySize=auto;html=1;exitX=1;exitY=0.5;exitDx=0;exitDy=0;entryX=0;entryY=0.5;entryDx=0;entryDy=0;" edge="1" parent="1" source="16" target="25">
                    <mxGeometry relative="1" as="geometry"/>
                </mxCell>
                <mxCell id="16" value="users" style="whiteSpace=wrap;html=1;fillColor=#f5f5f5;strokeColor=#666666;fontColor=#333333;gradientColor=#ffffff;rounded=1;" vertex="1" parent="1">
                    <mxGeometry x="60" y="415" width="120" height="20" as="geometry"/>
                </mxCell>
                <mxCell id="59" style="edgeStyle=orthogonalEdgeStyle;orthogonalLoop=1;jettySize=auto;html=1;exitX=0.107;exitY=1.036;exitDx=0;exitDy=0;entryX=0;entryY=0.5;entryDx=0;entryDy=0;exitPerimeter=0;" edge="1" parent="1" source="17" target="31">
                    <mxGeometry relative="1" as="geometry">
                        <Array as="points">
                            <mxPoint x="73" y="190"/>
                        </Array>
                    </mxGeometry>
                </mxCell>
                <mxCell id="61" style="edgeStyle=orthogonalEdgeStyle;orthogonalLoop=1;jettySize=auto;html=1;exitX=0.107;exitY=1.036;exitDx=0;exitDy=0;entryX=0;entryY=0.5;entryDx=0;entryDy=0;exitPerimeter=0;" edge="1" parent="1" source="17" target="35">
                    <mxGeometry relative="1" as="geometry">
                        <Array as="points">
                            <mxPoint x="73" y="305"/>
                        </Array>
                    </mxGeometry>
                </mxCell>
                <mxCell id="62" style="edgeStyle=orthogonalEdgeStyle;orthogonalLoop=1;jettySize=auto;html=1;exitX=0.112;exitY=0.98;exitDx=0;exitDy=0;entryX=0;entryY=0.5;entryDx=0;entryDy=0;exitPerimeter=0;jumpSize=0;" edge="1" parent="1" source="17" target="37">
                    <mxGeometry relative="1" as="geometry">
                        <Array as="points">
                            <mxPoint x="73" y="345"/>
                        </Array>
                    </mxGeometry>
                </mxCell>
                <mxCell id="63" style="edgeStyle=elbowEdgeStyle;orthogonalLoop=1;jettySize=auto;html=1;entryX=0;entryY=0.5;entryDx=0;entryDy=0;exitX=0.115;exitY=0.983;exitDx=0;exitDy=0;exitPerimeter=0;elbow=vertical;" edge="1" parent="1" source="17" target="39">
                    <mxGeometry relative="1" as="geometry">
                        <mxPoint x="40" y="40" as="sourcePoint"/>
                        <Array as="points">
                            <mxPoint x="80" y="385"/>
                        </Array>
                    </mxGeometry>
                </mxCell>
                <mxCell id="17" value="section=12345" style="whiteSpace=wrap;html=1;fillColor=#f5f5f5;strokeColor=#666666;fontColor=#333333;gradientColor=#ffffff;rounded=1;" vertex="1" parent="1">
                    <mxGeometry x="60" y="100" width="120" height="20" as="geometry"/>
                </mxCell>
                <mxCell id="19" value="2020-09-17-15-04-23.csv" style="whiteSpace=wrap;html=1;fillColor=#dae8fc;strokeColor=#6c8ebf;gradientColor=#ffffff;rounded=1;" vertex="1" parent="1">
                    <mxGeometry x="235" y="140" width="160" height="20" as="geometry"/>
                </mxCell>
                <mxCell id="25" value="2020-09-17-15-04-23.csv" style="whiteSpace=wrap;html=1;fillColor=#dae8fc;strokeColor=#6c8ebf;gradientColor=#ffffff;rounded=1;" vertex="1" parent="1">
                    <mxGeometry x="210" y="415" width="160" height="20" as="geometry"/>
                </mxCell>
                <mxCell id="56" style="edgeStyle=orthogonalEdgeStyle;orthogonalLoop=1;jettySize=auto;html=1;exitX=1;exitY=0.5;exitDx=0;exitDy=0;entryX=0;entryY=0.5;entryDx=0;entryDy=0;" edge="1" parent="1" source="26" target="19">
                    <mxGeometry relative="1" as="geometry"/>
                </mxCell>
                <mxCell id="26" value="activities" style="whiteSpace=wrap;html=1;fillColor=#f5f5f5;strokeColor=#666666;fontColor=#333333;gradientColor=#ffffff;rounded=1;" vertex="1" parent="1">
                    <mxGeometry x="90" y="140" width="120" height="20" as="geometry"/>
                </mxCell>
                <mxCell id="30" value="2020-09-17-15-04-23.csv" style="whiteSpace=wrap;html=1;fillColor=#dae8fc;strokeColor=#6c8ebf;gradientColor=#ffffff;rounded=1;" vertex="1" parent="1">
                    <mxGeometry x="235" y="180" width="160" height="20" as="geometry"/>
                </mxCell>
                <mxCell id="57" style="edgeStyle=orthogonalEdgeStyle;orthogonalLoop=1;jettySize=auto;html=1;exitX=1;exitY=0.5;exitDx=0;exitDy=0;entryX=0;entryY=0.5;entryDx=0;entryDy=0;" edge="1" parent="1" source="31" target="30">
                    <mxGeometry relative="1" as="geometry"/>
                </mxCell>
                <mxCell id="31" value="assignments" style="whiteSpace=wrap;html=1;fillColor=#f5f5f5;strokeColor=#666666;fontColor=#333333;gradientColor=#ffffff;rounded=1;" vertex="1" parent="1">
                    <mxGeometry x="90" y="180" width="120" height="20" as="geometry"/>
                </mxCell>
                <mxCell id="58" style="edgeStyle=orthogonalEdgeStyle;orthogonalLoop=1;jettySize=auto;html=1;exitX=0.143;exitY=1.121;exitDx=0;exitDy=0;entryX=0;entryY=0.5;entryDx=0;entryDy=0;exitPerimeter=0;" edge="1" parent="1" target="44">
                    <mxGeometry relative="1" as="geometry">
                        <mxPoint x="107.16000000000008" y="235.41999999999985" as="sourcePoint"/>
                        <Array as="points">
                            <mxPoint x="107" y="265"/>
                        </Array>
                    </mxGeometry>
                </mxCell>
                <mxCell id="33" value="assignment=67890" style="whiteSpace=wrap;html=1;fillColor=#f5f5f5;strokeColor=#666666;fontColor=#333333;gradientColor=#ffffff;rounded=1;" vertex="1" parent="1">
                    <mxGeometry x="90" y="220" width="120" height="20" as="geometry"/>
                </mxCell>
                <mxCell id="34" value="2020-09-17-15-04-23.csv" style="whiteSpace=wrap;html=1;fillColor=#dae8fc;strokeColor=#6c8ebf;gradientColor=#ffffff;rounded=1;" vertex="1" parent="1">
                    <mxGeometry x="235" y="295" width="160" height="20" as="geometry"/>
                </mxCell>
                <mxCell id="65" style="edgeStyle=orthogonalEdgeStyle;orthogonalLoop=1;jettySize=auto;html=1;exitX=1;exitY=0.5;exitDx=0;exitDy=0;entryX=0;entryY=0.5;entryDx=0;entryDy=0;" edge="1" parent="1" source="35" target="34">
                    <mxGeometry relative="1" as="geometry"/>
                </mxCell>
                <mxCell id="35" value="attendance" style="whiteSpace=wrap;html=1;fillColor=#f5f5f5;strokeColor=#666666;fontColor=#333333;gradientColor=#ffffff;rounded=1;" vertex="1" parent="1">
                    <mxGeometry x="90" y="295" width="120" height="20" as="geometry"/>
                </mxCell>
                <mxCell id="36" value="2020-09-17-15-04-23.csv" style="whiteSpace=wrap;html=1;fillColor=#dae8fc;strokeColor=#6c8ebf;gradientColor=#ffffff;rounded=1;" vertex="1" parent="1">
                    <mxGeometry x="235" y="335" width="160" height="20" as="geometry"/>
                </mxCell>
                <mxCell id="66" style="edgeStyle=orthogonalEdgeStyle;orthogonalLoop=1;jettySize=auto;html=1;exitX=1;exitY=0.5;exitDx=0;exitDy=0;entryX=0;entryY=0.5;entryDx=0;entryDy=0;" edge="1" parent="1" source="37" target="36">
                    <mxGeometry relative="1" as="geometry"/>
                </mxCell>
                <mxCell id="37" value="grades" style="whiteSpace=wrap;html=1;fillColor=#f5f5f5;strokeColor=#666666;fontColor=#333333;gradientColor=#ffffff;rounded=1;" vertex="1" parent="1">
                    <mxGeometry x="90" y="335" width="120" height="20" as="geometry"/>
                </mxCell>
                <mxCell id="38" value="2020-09-17-15-04-23.csv" style="whiteSpace=wrap;html=1;fillColor=#dae8fc;strokeColor=#6c8ebf;gradientColor=#ffffff;rounded=1;" vertex="1" parent="1">
                    <mxGeometry x="235" y="375" width="160" height="20" as="geometry"/>
                </mxCell>
                <mxCell id="67" style="edgeStyle=orthogonalEdgeStyle;orthogonalLoop=1;jettySize=auto;html=1;exitX=1;exitY=0.5;exitDx=0;exitDy=0;" edge="1" parent="1" source="39" target="38">
                    <mxGeometry relative="1" as="geometry"/>
                </mxCell>
                <mxCell id="39" value="section-associations" style="whiteSpace=wrap;html=1;fillColor=#f5f5f5;strokeColor=#666666;fontColor=#333333;gradientColor=#ffffff;rounded=1;" vertex="1" parent="1">
                    <mxGeometry x="90" y="375" width="120" height="20" as="geometry"/>
                </mxCell>
                <mxCell id="41" value="..." style="whiteSpace=wrap;html=1;fillColor=#dae8fc;strokeColor=#6c8ebf;gradientColor=#ffffff;rounded=1;" vertex="1" parent="1">
                    <mxGeometry x="215" y="69" width="160" height="20" as="geometry"/>
                </mxCell>
                <mxCell id="20" value="2020-09-17-15-04-23.csv" style="whiteSpace=wrap;html=1;fillColor=#dae8fc;strokeColor=#6c8ebf;gradientColor=#ffffff;rounded=1;" vertex="1" parent="1">
                    <mxGeometry x="210" y="60" width="160" height="20" as="geometry"/>
                </mxCell>
                <mxCell id="64" style="edgeStyle=orthogonalEdgeStyle;orthogonalLoop=1;jettySize=auto;html=1;exitX=1;exitY=0.5;exitDx=0;exitDy=0;entryX=0;entryY=0.5;entryDx=0;entryDy=0;" edge="1" parent="1" source="44" target="32">
                    <mxGeometry relative="1" as="geometry"/>
                </mxCell>
                <mxCell id="44" value="submissions" style="whiteSpace=wrap;html=1;fillColor=#f5f5f5;strokeColor=#666666;fontColor=#333333;gradientColor=#ffffff;rounded=1;" vertex="1" parent="1">
                    <mxGeometry x="130" y="255" width="120" height="20" as="geometry"/>
                </mxCell>
                <mxCell id="32" value="2020-09-17-15-04-23.csv" style="whiteSpace=wrap;html=1;fillColor=#dae8fc;strokeColor=#6c8ebf;gradientColor=#ffffff;rounded=1;" vertex="1" parent="1">
                    <mxGeometry x="275" y="255" width="160" height="20" as="geometry"/>
                </mxCell>
                <mxCell id="52" style="edgeStyle=orthogonalEdgeStyle;orthogonalLoop=1;jettySize=auto;html=1;exitX=0.086;exitY=0.979;exitDx=0;exitDy=0;entryX=0;entryY=0.5;entryDx=0;entryDy=0;exitPerimeter=0;" edge="1" parent="1" source="15" target="17">
                    <mxGeometry relative="1" as="geometry">
                        <mxPoint x="52" y="50.139999999999986" as="sourcePoint"/>
                        <mxPoint x="70" y="80" as="targetPoint"/>
                        <Array as="points">
                            <mxPoint x="40" y="50"/>
                            <mxPoint x="40" y="110"/>
                        </Array>
                    </mxGeometry>
                </mxCell>
                <mxCell id="53" style="edgeStyle=orthogonalEdgeStyle;orthogonalLoop=1;jettySize=auto;html=1;exitX=0.071;exitY=1.007;exitDx=0;exitDy=0;exitPerimeter=0;entryX=0;entryY=0.5;entryDx=0;entryDy=0;" edge="1" parent="1" source="15" target="16">
                    <mxGeometry relative="1" as="geometry">
                        <mxPoint x="50.319999999999936" y="49.58000000000004" as="sourcePoint"/>
                        <mxPoint x="50" y="350" as="targetPoint"/>
                        <Array as="points">
                            <mxPoint x="40" y="40"/>
                            <mxPoint x="40" y="425"/>
                        </Array>
                    </mxGeometry>
                </mxCell>
                <mxCell id="54" style="edgeStyle=orthogonalEdgeStyle;orthogonalLoop=1;jettySize=auto;html=1;exitX=1;exitY=0.5;exitDx=0;exitDy=0;entryX=0;entryY=0.5;entryDx=0;entryDy=0;" edge="1" parent="1" source="14" target="20">
                    <mxGeometry relative="1" as="geometry">
                        <mxPoint x="60.319999999999936" y="59.58000000000004" as="sourcePoint"/>
                        <mxPoint x="80" y="130" as="targetPoint"/>
                        <Array as="points">
                            <mxPoint x="200" y="70"/>
                            <mxPoint x="200" y="70"/>
                        </Array>
                    </mxGeometry>
                </mxCell>
                <mxCell id="55" style="edgeStyle=orthogonalEdgeStyle;orthogonalLoop=1;jettySize=auto;html=1;exitX=0.107;exitY=1.121;exitDx=0;exitDy=0;entryX=0;entryY=0.5;entryDx=0;entryDy=0;exitPerimeter=0;" edge="1" parent="1" source="17" target="26">
                    <mxGeometry relative="1" as="geometry">
                        <mxPoint x="190" y="80" as="sourcePoint"/>
                        <mxPoint x="225" y="80" as="targetPoint"/>
                        <Array as="points">
                            <mxPoint x="73" y="150"/>
                        </Array>
                    </mxGeometry>
                </mxCell>
                <mxCell id="71" style="edgeStyle=elbowEdgeStyle;jumpSize=0;orthogonalLoop=1;jettySize=auto;elbow=vertical;html=1;exitX=0.25;exitY=1;exitDx=0;exitDy=0;strokeColor=#000000;" edge="1" parent="1" source="15" target="15">
                    <mxGeometry relative="1" as="geometry"/>
                </mxCell>
            </root>
        </mxGraphModel>
    </diagram>
</mxfile>
